<svg xmlns="http://www.w3.org/2000/svg" xmlns:xlink="http://www.w3.org/1999/xlink" width="500" zoomAndPan="magnify" viewBox="0 0 375 374.999991" height="500" preserveAspectRatio="xMidYMid meet" version="1.0"><defs><g/></defs><rect x="-37.5" width="450" fill="#ffffff" y="-37.499999" height="449.999989" fill-opacity="1"/><rect x="-37.5" width="450" fill="#1c191a" y="-37.499999" height="449.999989" fill-opacity="1"/><g fill="#ffffff" fill-opacity="1"><g transform="translate(95.259556, 251.950589)"><g><path d="M 4.375 -10.15625 L 4.375 -6.859375 L 10.140625 -6.859375 L 10.140625 -4.546875 L 4.375 -4.546875 L 4.375 0 L 1.484375 0 L 1.484375 -12.484375 L 10.90625 -12.484375 L 10.90625 -10.15625 Z M 4.375 -10.15625 "/></g></g></g><g fill="#ffffff" fill-opacity="1"><g transform="translate(108.236048, 251.950589)"><g><path d="M 7.53125 0.21875 C 6.226562 0.21875 5.054688 -0.0625 4.015625 -0.625 C 2.972656 -1.1875 2.15625 -1.957031 1.5625 -2.9375 C 0.976562 -3.914062 0.6875 -5.015625 0.6875 -6.234375 C 0.6875 -7.460938 0.976562 -8.566406 1.5625 -9.546875 C 2.15625 -10.523438 2.972656 -11.289062 4.015625 -11.84375 C 5.054688 -12.40625 6.226562 -12.6875 7.53125 -12.6875 C 8.820312 -12.6875 9.984375 -12.40625 11.015625 -11.84375 C 12.046875 -11.289062 12.859375 -10.523438 13.453125 -9.546875 C 14.054688 -8.566406 14.359375 -7.460938 14.359375 -6.234375 C 14.359375 -5.015625 14.054688 -3.914062 13.453125 -2.9375 C 12.859375 -1.957031 12.046875 -1.1875 11.015625 -0.625 C 9.984375 -0.0625 8.820312 0.21875 7.53125 0.21875 Z M 7.53125 -2.25 C 8.257812 -2.25 8.921875 -2.414062 9.515625 -2.75 C 10.109375 -3.09375 10.570312 -3.566406 10.90625 -4.171875 C 11.25 -4.773438 11.421875 -5.460938 11.421875 -6.234375 C 11.421875 -7.015625 11.25 -7.707031 10.90625 -8.3125 C 10.570312 -8.914062 10.109375 -9.382812 9.515625 -9.71875 C 8.921875 -10.0625 8.257812 -10.234375 7.53125 -10.234375 C 6.789062 -10.234375 6.125 -10.0625 5.53125 -9.71875 C 4.9375 -9.382812 4.46875 -8.914062 4.125 -8.3125 C 3.789062 -7.707031 3.625 -7.015625 3.625 -6.234375 C 3.625 -5.460938 3.789062 -4.773438 4.125 -4.171875 C 4.46875 -3.566406 4.9375 -3.09375 5.53125 -2.75 C 6.125 -2.414062 6.789062 -2.25 7.53125 -2.25 Z M 7.53125 -2.25 "/></g></g></g><g fill="#ffffff" fill-opacity="1"><g transform="translate(124.866489, 251.950589)"><g><path d="M 9.4375 0 L 7.03125 -3.46875 L 4.375 -3.46875 L 4.375 0 L 1.484375 0 L 1.484375 -12.484375 L 6.875 -12.484375 C 7.988281 -12.484375 8.953125 -12.296875 9.765625 -11.921875 C 10.578125 -11.554688 11.203125 -11.035156 11.640625 -10.359375 C 12.078125 -9.679688 12.296875 -8.878906 12.296875 -7.953125 C 12.296875 -7.023438 12.070312 -6.222656 11.625 -5.546875 C 11.1875 -4.878906 10.554688 -4.367188 9.734375 -4.015625 L 12.53125 0 Z M 9.375 -7.953125 C 9.375 -8.648438 9.144531 -9.1875 8.6875 -9.5625 C 8.238281 -9.9375 7.582031 -10.125 6.71875 -10.125 L 4.375 -10.125 L 4.375 -5.78125 L 6.71875 -5.78125 C 7.582031 -5.78125 8.238281 -5.96875 8.6875 -6.34375 C 9.144531 -6.726562 9.375 -7.265625 9.375 -7.953125 Z M 9.375 -7.953125 "/></g></g></g><g fill="#ffffff" fill-opacity="1"><g transform="translate(139.554102, 251.950589)"><g><path d="M 11.140625 -2.3125 L 11.140625 0 L 1.484375 0 L 1.484375 -12.484375 L 10.90625 -12.484375 L 10.90625 -10.15625 L 4.34375 -10.15625 L 4.34375 -7.453125 L 10.140625 -7.453125 L 10.140625 -5.203125 L 4.34375 -5.203125 L 4.34375 -2.3125 Z M 11.140625 -2.3125 "/></g></g></g><g fill="#ffffff" fill-opacity="1"><g transform="translate(153.100968, 251.950589)"><g><path d="M 12.921875 -12.484375 L 12.921875 0 L 10.546875 0 L 4.328125 -7.578125 L 4.328125 0 L 1.484375 0 L 1.484375 -12.484375 L 3.875 -12.484375 L 10.078125 -4.90625 L 10.078125 -12.484375 Z M 12.921875 -12.484375 "/></g></g></g><g fill="#ffffff" fill-opacity="1"><g transform="translate(169.089736, 251.950589)"><g><path d="M 5.578125 0.21875 C 4.585938 0.21875 3.632812 0.0820312 2.71875 -0.1875 C 1.800781 -0.457031 1.0625 -0.804688 0.5 -1.234375 L 1.484375 -3.40625 C 2.015625 -3.007812 2.648438 -2.691406 3.390625 -2.453125 C 4.128906 -2.222656 4.863281 -2.109375 5.59375 -2.109375 C 6.414062 -2.109375 7.019531 -2.226562 7.40625 -2.46875 C 7.800781 -2.707031 8 -3.03125 8 -3.4375 C 8 -3.738281 7.882812 -3.984375 7.65625 -4.171875 C 7.425781 -4.367188 7.128906 -4.523438 6.765625 -4.640625 C 6.398438 -4.765625 5.910156 -4.898438 5.296875 -5.046875 C 4.347656 -5.273438 3.566406 -5.5 2.953125 -5.71875 C 2.347656 -5.945312 1.828125 -6.3125 1.390625 -6.8125 C 0.960938 -7.3125 0.75 -7.976562 0.75 -8.8125 C 0.75 -9.53125 0.941406 -10.179688 1.328125 -10.765625 C 1.722656 -11.359375 2.316406 -11.828125 3.109375 -12.171875 C 3.898438 -12.515625 4.867188 -12.6875 6.015625 -12.6875 C 6.804688 -12.6875 7.582031 -12.59375 8.34375 -12.40625 C 9.101562 -12.21875 9.769531 -11.945312 10.34375 -11.59375 L 9.453125 -9.390625 C 8.296875 -10.046875 7.140625 -10.375 5.984375 -10.375 C 5.179688 -10.375 4.585938 -10.242188 4.203125 -9.984375 C 3.816406 -9.722656 3.625 -9.378906 3.625 -8.953125 C 3.625 -8.523438 3.84375 -8.207031 4.28125 -8 C 4.726562 -7.789062 5.410156 -7.582031 6.328125 -7.375 C 7.273438 -7.15625 8.050781 -6.929688 8.65625 -6.703125 C 9.269531 -6.472656 9.789062 -6.113281 10.21875 -5.625 C 10.65625 -5.144531 10.875 -4.488281 10.875 -3.65625 C 10.875 -2.9375 10.675781 -2.28125 10.28125 -1.6875 C 9.882812 -1.101562 9.285156 -0.640625 8.484375 -0.296875 C 7.691406 0.046875 6.722656 0.21875 5.578125 0.21875 Z M 5.578125 0.21875 "/></g></g></g><g fill="#ffffff" fill-opacity="1"><g transform="translate(182.048396, 251.950589)"><g><path d="M 1.484375 -12.484375 L 4.375 -12.484375 L 4.375 0 L 1.484375 0 Z M 1.484375 -12.484375 "/></g></g></g><g fill="#ffffff" fill-opacity="1"><g transform="translate(189.481562, 251.950589)"><g><path d="M 7.453125 0.21875 C 6.179688 0.21875 5.03125 -0.0546875 4 -0.609375 C 2.96875 -1.160156 2.15625 -1.925781 1.5625 -2.90625 C 0.976562 -3.894531 0.6875 -5.003906 0.6875 -6.234375 C 0.6875 -7.472656 0.976562 -8.582031 1.5625 -9.5625 C 2.15625 -10.539062 2.96875 -11.304688 4 -11.859375 C 5.03125 -12.410156 6.1875 -12.6875 7.46875 -12.6875 C 8.550781 -12.6875 9.53125 -12.492188 10.40625 -12.109375 C 11.28125 -11.734375 12.015625 -11.191406 12.609375 -10.484375 L 10.75 -8.765625 C 9.90625 -9.742188 8.859375 -10.234375 7.609375 -10.234375 C 6.835938 -10.234375 6.148438 -10.0625 5.546875 -9.71875 C 4.941406 -9.382812 4.46875 -8.914062 4.125 -8.3125 C 3.789062 -7.707031 3.625 -7.015625 3.625 -6.234375 C 3.625 -5.460938 3.789062 -4.773438 4.125 -4.171875 C 4.46875 -3.566406 4.941406 -3.09375 5.546875 -2.75 C 6.148438 -2.414062 6.835938 -2.25 7.609375 -2.25 C 8.859375 -2.25 9.90625 -2.738281 10.75 -3.71875 L 12.609375 -2.015625 C 12.015625 -1.285156 11.273438 -0.726562 10.390625 -0.34375 C 9.515625 0.03125 8.535156 0.21875 7.453125 0.21875 Z M 7.453125 0.21875 "/></g></g></g><g fill="#f14902" fill-opacity="1"><g transform="translate(204.138455, 251.950589)"><g><path d="M 1.484375 -12.484375 L 7.15625 -12.484375 C 8.507812 -12.484375 9.703125 -12.222656 10.734375 -11.703125 C 11.773438 -11.179688 12.582031 -10.453125 13.15625 -9.515625 C 13.738281 -8.578125 14.03125 -7.484375 14.03125 -6.234375 C 14.03125 -4.992188 13.738281 -3.898438 13.15625 -2.953125 C 12.582031 -2.015625 11.773438 -1.285156 10.734375 -0.765625 C 9.703125 -0.253906 8.507812 0 7.15625 0 L 1.484375 0 Z M 7 -2.375 C 8.25 -2.375 9.242188 -2.71875 9.984375 -3.40625 C 10.734375 -4.101562 11.109375 -5.046875 11.109375 -6.234375 C 11.109375 -7.421875 10.734375 -8.363281 9.984375 -9.0625 C 9.242188 -9.757812 8.25 -10.109375 7 -10.109375 L 4.375 -10.109375 L 4.375 -2.375 Z M 7 -2.375 "/></g></g></g><g fill="#f14902" fill-opacity="1"><g transform="translate(220.448061, 251.950589)"><g><path d="M 9.4375 0 L 7.03125 -3.46875 L 4.375 -3.46875 L 4.375 0 L 1.484375 0 L 1.484375 -12.484375 L 6.875 -12.484375 C 7.988281 -12.484375 8.953125 -12.296875 9.765625 -11.921875 C 10.578125 -11.554688 11.203125 -11.035156 11.640625 -10.359375 C 12.078125 -9.679688 12.296875 -8.878906 12.296875 -7.953125 C 12.296875 -7.023438 12.070312 -6.222656 11.625 -5.546875 C 11.1875 -4.878906 10.554688 -4.367188 9.734375 -4.015625 L 12.53125 0 Z M 9.375 -7.953125 C 9.375 -8.648438 9.144531 -9.1875 8.6875 -9.5625 C 8.238281 -9.9375 7.582031 -10.125 6.71875 -10.125 L 4.375 -10.125 L 4.375 -5.78125 L 6.71875 -5.78125 C 7.582031 -5.78125 8.238281 -5.96875 8.6875 -6.34375 C 9.144531 -6.726562 9.375 -7.265625 9.375 -7.953125 Z M 9.375 -7.953125 "/></g></g></g><g fill="#f14902" fill-opacity="1"><g transform="translate(235.135674, 251.950589)"><g><path d="M 7.53125 0.21875 C 6.226562 0.21875 5.054688 -0.0625 4.015625 -0.625 C 2.972656 -1.1875 2.15625 -1.957031 1.5625 -2.9375 C 0.976562 -3.914062 0.6875 -5.015625 0.6875 -6.234375 C 0.6875 -7.460938 0.976562 -8.566406 1.5625 -9.546875 C 2.15625 -10.523438 2.972656 -11.289062 4.015625 -11.84375 C 5.054688 -12.40625 6.226562 -12.6875 7.53125 -12.6875 C 8.820312 -12.6875 9.984375 -12.40625 11.015625 -11.84375 C 12.046875 -11.289062 12.859375 -10.523438 13.453125 -9.546875 C 14.054688 -8.566406 14.359375 -7.460938 14.359375 -6.234375 C 14.359375 -5.015625 14.054688 -3.914062 13.453125 -2.9375 C 12.859375 -1.957031 12.046875 -1.1875 11.015625 -0.625 C 9.984375 -0.0625 8.820312 0.21875 7.53125 0.21875 Z M 7.53125 -2.25 C 8.257812 -2.25 8.921875 -2.414062 9.515625 -2.75 C 10.109375 -3.09375 10.570312 -3.566406 10.90625 -4.171875 C 11.25 -4.773438 11.421875 -5.460938 11.421875 -6.234375 C 11.421875 -7.015625 11.25 -7.707031 10.90625 -8.3125 C 10.570312 -8.914062 10.109375 -9.382812 9.515625 -9.71875 C 8.921875 -10.0625 8.257812 -10.234375 7.53125 -10.234375 C 6.789062 -10.234375 6.125 -10.0625 5.53125 -9.71875 C 4.9375 -9.382812 4.46875 -8.914062 4.125 -8.3125 C 3.789062 -7.707031 3.625 -7.015625 3.625 -6.234375 C 3.625 -5.460938 3.789062 -4.773438 4.125 -4.171875 C 4.46875 -3.566406 4.9375 -3.09375 5.53125 -2.75 C 6.125 -2.414062 6.789062 -2.25 7.53125 -2.25 Z M 7.53125 -2.25 "/></g></g></g><g fill="#f14902" fill-opacity="1"><g transform="translate(251.766115, 251.950589)"><g><path d="M 12.921875 -12.484375 L 12.921875 0 L 10.546875 0 L 4.328125 -7.578125 L 4.328125 0 L 1.484375 0 L 1.484375 -12.484375 L 3.875 -12.484375 L 10.078125 -4.90625 L 10.078125 -12.484375 Z M 12.921875 -12.484375 "/></g></g></g><g fill="#f14902" fill-opacity="1"><g transform="translate(267.754886, 251.950589)"><g><path d="M 11.140625 -2.3125 L 11.140625 0 L 1.484375 0 L 1.484375 -12.484375 L 10.90625 -12.484375 L 10.90625 -10.15625 L 4.34375 -10.15625 L 4.34375 -7.453125 L 10.140625 -7.453125 L 10.140625 -5.203125 L 4.34375 -5.203125 L 4.34375 -2.3125 Z M 11.140625 -2.3125 "/></g></g></g><g fill="#f6f6f6" fill-opacity="1"><g transform="translate(86.03949, 228.567626)"><g><path d="M 12.671875 0 L 31.96875 0 L 31.96875 -44.0625 L 82.367188 -44.0625 L 82.367188 -60.191406 L 31.96875 -60.191406 L 31.96875 -91.441406 L 87.839844 -91.441406 L 87.839844 -106.992188 L 12.671875 -106.992188 Z M 12.671875 0 "/></g></g></g><g fill="#f14902" fill-opacity="1"><g transform="translate(176.906675, 228.567626)"><g><path d="M 12.671875 0 L 56.59375 0 C 90.574219 0 105.265625 -18.433594 105.265625 -52.992188 L 105.265625 -54.71875 C 105.265625 -89.136719 90 -106.992188 56.449219 -106.992188 L 12.671875 -106.992188 Z M 31.96875 -16.128906 L 31.96875 -90.863281 L 53.710938 -90.863281 C 74.878906 -90.863281 85.824219 -80.929688 85.824219 -55.871094 L 85.824219 -51.839844 C 85.824219 -26.207031 74.878906 -16.128906 53.710938 -16.128906 Z M 31.96875 -16.128906 "/></g></g></g></svg>